<?xml version="1.0" encoding="utf-8"?>
<!-- Generator: Adobe Illustrator 27.5.0, SVG Export Plug-In . SVG Version: 6.00 Build 0)  -->
<svg version="1.1" id="Layer_1" xmlns="http://www.w3.org/2000/svg" xmlns:xlink="http://www.w3.org/1999/xlink" x="0px" y="0px"
	 viewBox="0 0 3000 2000" style="enable-background:new 0 0 3000 2000;" xml:space="preserve">
<g>
	<rect transform="matrix(-1 -1.224647e-16 1.224647e-16 -1 3000 2000)" style="fill:#FFFFFF;" width="3000" height="2000"/>
	<g>
		<polygon style="fill:#50BFA5;" points="2299.914,837.332 2309.419,854.89 2339.358,842.718 2356.421,866.677 2380.316,861.231 
			2383.072,873.327 2351.113,880.61 2334.945,857.906 2303.798,870.567 2289.496,844.146 		"/>
		<g>
			
				<rect x="311.867" y="896.749" transform="matrix(-1 -1.224647e-16 1.224647e-16 -1 902.9849 2677.3018)" style="fill:#86B1F2;" width="279.251" height="883.804"/>
			
				<rect x="358.477" y="953.222" transform="matrix(-1 -1.224647e-16 1.224647e-16 -1 786.8501 2017.163)" style="fill:#355389;" width="69.896" height="110.72"/>
			
				<rect x="357.565" y="1106.299" transform="matrix(-1 -1.224647e-16 1.224647e-16 -1 785.0273 2323.3164)" style="fill:#355389;" width="69.896" height="110.719"/>
			
				<rect x="356.654" y="1259.375" transform="matrix(-1 -1.224647e-16 1.224647e-16 -1 783.2051 2629.4707)" style="fill:#355389;" width="69.896" height="110.721"/>
			
				<rect x="355.744" y="1412.452" transform="matrix(-1 -1.224647e-16 1.224647e-16 -1 781.3837 2935.6238)" style="fill:#355389;" width="69.896" height="110.72"/>
			
				<rect x="354.833" y="1565.529" transform="matrix(-1 -1.224647e-16 1.224647e-16 -1 779.561 3241.7783)" style="fill:#355389;" width="69.895" height="110.72"/>
		</g>
		
			<rect x="969.35" y="1299.186" transform="matrix(-1 -1.224647e-16 1.224647e-16 -1 2217.9512 3079.7383)" style="fill:#86B1F2;" width="279.252" height="481.367"/>
		<g>
			
				<rect x="538.33" y="484.089" transform="matrix(-1 -1.224647e-16 1.224647e-16 -1 1537.4712 2264.6416)" style="fill:#9BC1F9;" width="460.811" height="1296.464"/>
			<g>
				
					<rect x="830.558" y="559.828" transform="matrix(-1 -1.224647e-16 1.224647e-16 -1 1767.3281 1166.5414)" style="fill:#FFFFFF;" width="106.212" height="46.886"/>
				
					<rect x="664.414" y="559.828" transform="matrix(-1 -1.224647e-16 1.224647e-16 -1 1435.0391 1166.5414)" style="fill:#FFFFFF;" width="106.211" height="46.886"/>
			</g>
		</g>
		<g>
			
				<rect x="2125.957" y="1467.879" transform="matrix(-1 -1.224647e-16 1.224647e-16 -1 4546.7871 3249.0742)" style="fill:#9BC1F9;" width="294.873" height="313.316"/>
			
				<rect x="2339.447" y="1486.225" transform="matrix(-1 -1.224647e-16 1.224647e-16 -1 4722.4453 3016.001)" style="fill:#FFFFFF;" width="43.551" height="43.552"/>
			
				<rect x="2276.813" y="1486.225" transform="matrix(-1 -1.224647e-16 1.224647e-16 -1 4597.1758 3016.001)" style="fill:#FFFFFF;" width="43.551" height="43.552"/>
			
				<rect x="2339.447" y="1547.331" transform="matrix(-1 -1.224647e-16 1.224647e-16 -1 4722.4453 3138.2139)" style="fill:#FFFFFF;" width="43.551" height="43.552"/>
			
				<rect x="2276.813" y="1547.331" transform="matrix(-1 -1.224647e-16 1.224647e-16 -1 4597.1758 3138.2139)" style="fill:#FFFFFF;" width="43.551" height="43.552"/>
			
				<rect x="2336.028" y="1616.635" transform="matrix(-1 -1.224647e-16 1.224647e-16 -1 4715.6084 3276.8203)" style="fill:#FFFFFF;" width="43.552" height="43.551"/>
			
				<rect x="2273.394" y="1616.635" transform="matrix(-1 -1.224647e-16 1.224647e-16 -1 4590.3379 3276.8203)" style="fill:#FFFFFF;" width="43.551" height="43.551"/>
			
				<rect x="2336.028" y="1677.74" transform="matrix(-1 -1.224647e-16 1.224647e-16 -1 4715.6084 3399.0322)" style="fill:#FFFFFF;" width="43.552" height="43.552"/>
			
				<rect x="2273.394" y="1677.74" transform="matrix(-1 -1.224647e-16 1.224647e-16 -1 4590.3379 3399.0322)" style="fill:#FFFFFF;" width="43.551" height="43.552"/>
		</g>
		<g>
			
				<rect x="2392.171" y="1375.494" transform="matrix(-1 -1.224647e-16 1.224647e-16 -1 5063.5938 3156.0469)" style="fill:#86B1F2;" width="279.252" height="405.059"/>
			
				<rect x="2605.775" y="1397.039" transform="matrix(-1 -1.224647e-16 1.224647e-16 -1 5255.1016 2837.6289)" style="fill:#FFFFFF;" width="43.551" height="43.551"/>
			
				<rect x="2543.139" y="1397.039" transform="matrix(-1 -1.224647e-16 1.224647e-16 -1 5129.8291 2837.6289)" style="fill:#FFFFFF;" width="43.552" height="43.551"/>
			
				<rect x="2605.775" y="1458.145" transform="matrix(-1 -1.224647e-16 1.224647e-16 -1 5255.1016 2959.8398)" style="fill:#FFFFFF;" width="43.551" height="43.551"/>
			
				<rect x="2543.139" y="1458.145" transform="matrix(-1 -1.224647e-16 1.224647e-16 -1 5129.8291 2959.8398)" style="fill:#FFFFFF;" width="43.552" height="43.551"/>
			
				<rect x="2609.381" y="1525.693" transform="matrix(-1 -1.224647e-16 1.224647e-16 -1 5262.3125 3094.9385)" style="fill:#FFFFFF;" width="43.551" height="43.552"/>
			
				<rect x="2546.746" y="1525.693" transform="matrix(-1 -1.224647e-16 1.224647e-16 -1 5137.043 3094.9385)" style="fill:#FFFFFF;" width="43.551" height="43.552"/>
			
				<rect x="2609.381" y="1586.801" transform="matrix(-1 -1.224647e-16 1.224647e-16 -1 5262.3125 3217.1521)" style="fill:#FFFFFF;" width="43.551" height="43.551"/>
			
				<rect x="2546.746" y="1586.801" transform="matrix(-1 -1.224647e-16 1.224647e-16 -1 5137.043 3217.1521)" style="fill:#FFFFFF;" width="43.551" height="43.551"/>
		</g>
		<g>
			<path style="fill:#F7A491;" d="M1805.564,404.065l88.042,59.563c8.938,6.046,21.085,3.703,27.132-5.235l59.563-88.042
				c6.046-8.938,3.702-21.085-5.235-27.132l-88.043-59.563c-8.938-6.047-21.085-3.703-27.132,5.235l-59.563,88.042
				C1794.281,385.871,1796.626,398.018,1805.564,404.065z"/>
			<path style="fill:#FFFFFF;" d="M1851.334,339.523c-17.803,23.644-11.297,57.36,14.024,72.682
				c21.681,13.12,50.237,7.61,65.481-12.632c17.807-23.644,11.3-57.363-14.023-72.686
				C1895.135,313.768,1866.577,319.279,1851.334,339.523z"/>
			<path style="fill:#F47458;" d="M1907.493,349.08l-20.435,22.284c-1.498,1.632-1.388,4.168,0.244,5.665
				c1.632,1.497,4.169,1.387,5.665-0.245c0.239-0.262,0.446-0.564,0.604-0.864L1907.493,349.08z"/>
			<path style="fill:#F47458;" d="M1891.936,371.536l-30.827-17.259L1888,377.191c1.455,1.24,3.64,1.065,4.879-0.389
				c1.24-1.456,1.066-3.64-0.389-4.879C1892.32,371.777,1892.123,371.642,1891.936,371.536z"/>
		</g>
		<polygon style="fill:#9BC1F9;" points="1284.674,288.014 1290.398,302.956 1277.799,310.376 1285.51,327.04 1268.048,330.558 
			1275.877,349.522 1260.817,354.653 1265.123,373.193 1273.063,373.642 1269.844,359.781 1285.736,354.366 1278.209,336.137 
			1295.962,332.56 1287.456,314.171 1299.758,306.925 1294.454,293.076 1304.183,290.108 1299.827,283.392 		"/>
		<g>
			<g>
				<path style="fill:#F7CC7F;" d="M2494.039,899.354c-11.107,29.112,3.486,61.71,32.596,72.811
					c29.109,11.1,61.711-3.5,72.818-32.612c11.107-29.112-3.486-61.711-32.596-72.811
					C2537.748,855.642,2505.146,870.242,2494.039,899.354z"/>
				<path style="fill:#EFEFEF;" d="M2571.74,938.55c-5.938,15.565-23.369,23.371-38.932,17.437
					c-15.564-5.936-23.367-23.364-17.429-38.929L2571.74,938.55z"/>
			</g>
		</g>
		<polygon style="fill:#466EB6;" points="2229.891,509.245 2246.058,498.743 2232.035,470.863 2253.781,452.593 2246.698,430.013 
			2258.129,426.428 2267.602,456.628 2246.994,473.941 2261.581,502.945 2237.252,518.747 		"/>
		<g>
			<path style="fill:#FAE0B2;" d="M645.317,356.35l22.438,12.63c0,0,40.465-4.85,45.736-11.866
				c5.271-7.017,10.027-25.622,15.539-25.071c5.512,0.55,15.629,4.367,15.59,17.733c-0.029,9.701-19.027,34.023-17.453,37.319
				c0.983,2.062,13.671,9.69,23.031,15.112c6.155,3.565,9.775,10.311,9.411,17.517l-0.001,0.021
				c-0.246,4.871-3.835,8.957-8.605,9.798l-7.428,1.309l0.802,7.56c0.596,5.629-3.431,10.76-9.017,11.487l-5.691,0.741l0.854,4.676
				c1.1,6.023-3.245,11.759-9.317,12.299l-4.932,0.439l-0.052,1.286c-0.22,5.345-4.452,9.699-9.745,10.029l-4.873,0.303
				l-59.754-33.649c-5.599-3.152-10.481-7.436-14.347-12.589l-19.022-15.371c-2.043-1.652-2.558-4.584-1.209-6.894l30.81-52.786
				C639.569,355.832,642.792,354.927,645.317,356.35z"/>
		</g>
		<polygon style="fill:#F48C7F;" points="1654.994,361.62 1671.754,360.267 1674.041,375.77 1690.61,375.165 1694.623,389.711 
			1707.098,391.287 1706.299,397.601 1689.617,395.494 1685.814,381.71 1668.577,382.338 1666.327,367.091 1651.139,368.317 		"/>
		<g>
			<path style="fill:#FED333;" d="M2036.057,509.01l20.413,6.274l6.402,20.373c0.518,1.646,2.698,1.984,3.689,0.572l12.275-17.474
				l21.354,0.205c1.726,0.017,2.721-1.952,1.684-3.331l-12.825-17.074l6.794-20.246c0.55-1.635-1.016-3.19-2.647-2.631
				l-20.202,6.922l-17.155-12.718c-1.386-1.027-3.348-0.02-3.32,1.706l0.34,21.352l-17.396,12.385
				C2034.057,506.326,2034.408,508.503,2036.057,509.01z"/>
		</g>
		<g>
			<path style="fill:#FED333;" d="M2457.933,1138.039l20.413,6.274l6.402,20.372c0.518,1.646,2.697,1.984,3.689,0.572l12.275-17.475
				l21.354,0.205c1.725,0.018,2.721-1.952,1.684-3.33l-12.825-17.074l6.794-20.246c0.549-1.636-1.016-3.19-2.648-2.632
				l-20.201,6.922l-17.154-12.718c-1.387-1.027-3.349-0.02-3.322,1.706l0.342,21.351l-17.396,12.386
				C2455.932,1135.354,2456.284,1137.532,2457.933,1138.039z"/>
		</g>
		<g>
			<path style="fill:#3668B3;" d="M265.109,1781.195h2469.78c6.46,0,11.697,2.108,11.697,4.709l0,0
				c0,2.603-5.237,4.711-11.697,4.711H265.109c-6.46,0-11.696-2.108-11.696-4.711l0,0
				C253.413,1783.304,258.65,1781.195,265.109,1781.195z"/>
		</g>
		<g>
			<path style="fill:#F48C7F;" d="M1417.174,343.762c0,3.303,15.229,5.98,34.014,5.98c18.784,0,34.012-2.677,34.012-5.98
				c0-3.303-15.228-5.98-34.012-5.98C1432.402,337.782,1417.174,340.459,1417.174,343.762z"/>
			<path style="fill:#F47458;" d="M1423.168,262.383c0,13.808,28.019,81.379,28.019,81.379s28.019-67.571,28.019-81.379
				c0-13.808-12.545-25.002-28.019-25.002C1435.713,237.381,1423.168,248.575,1423.168,262.383z M1439.301,265.023
				c0-6.564,5.322-11.886,11.887-11.886c6.563,0,11.885,5.322,11.885,11.886c0,6.564-5.322,11.886-11.885,11.886
				C1444.623,276.909,1439.301,271.587,1439.301,265.023z"/>
		</g>
		<g>
			<polygon style="fill:#9BC1F9;" points="2276.257,587.275 2399.783,660.376 2305.109,681.797 			"/>
			<polygon style="fill:#9BC1F9;" points="2296.279,696.981 2406.984,671.935 2361.65,748.539 2219.51,664.422 2263.599,589.919 			
				"/>
		</g>
		<g>
			<path style="fill:#86B1F2;" d="M986.472,306.66c12.012,26.108,32.217,41.496,60.785,44.543
				c28.393,3.027,51.513-8.143,70.47-29.092c3.759,2.562,7.536,5.137,11.644,7.936c1.575-19.874,3.121-39.38,4.689-59.179
				c-17.938,8.544-35.553,16.934-53.597,25.528c4.066,2.817,7.99,5.537,11.895,8.242c-6.506,14.585-25.886,31.405-52.016,30.908
				C1017.53,335.113,999.979,324.604,986.472,306.66z"/>
			<path style="fill:#86B1F2;" d="M1132.822,238.194c-5.827-21.985-33.332-42.619-60.801-45.252
				c-28.339-2.715-51.399,8.186-70.397,29.173c-3.737-2.56-7.509-5.144-11.624-7.961c-1.583,19.846-3.136,39.328-4.716,59.125
				c17.948-8.548,35.598-16.954,53.556-25.508c-3.443-2.373-6.627-4.738-9.987-6.821c-1.95-1.209-1.912-2.18-0.79-4.033
				C1050.891,199.215,1105.967,198.798,1132.822,238.194z"/>
		</g>
		<polygon style="fill:#466EB6;" points="1648.887,216.188 1679.118,241.701 1648.887,272.034 		"/>
		<polygon style="fill:#50BFA5;" points="758.744,288.911 841.191,316.05 809.959,252.244 		"/>
		<g>
			<g>
				<path style="fill:#B75742;" d="M2123.863,1215.613h-288.334V904.271h166.852c67.093,0,121.482,54.389,121.482,121.481V1215.613z
					"/>
				<path style="fill:#F47458;" d="M1788.82,1654.57h475.401l6.731-341.247c0.116-5.918-0.835-11.814-2.814-17.436l-98.102-278.6
					c-7.609-21.611-29.207-36.216-53.556-36.216H1788.82V1654.57z"/>
				<path style="fill:#13375B;" d="M2270.963,1654.57h-29.66c-10.468,0-18.952-8.484-18.952-18.952v-77.777
					c0-10.468,8.484-18.952,18.952-18.952h29.66V1654.57z"/>
				<g>
					<path style="fill:#13375B;" d="M2306.616,1175.297h15.061v-52.71c0-43.3-35.227-78.528-78.527-78.528h-128.01v15.062h128.01
						c34.996,0,63.467,28.471,63.467,63.467V1175.297z"/>
				</g>
				<path style="fill:#13375B;" d="M2324.904,1283.944h-24.742c-16.04,0-29.044-13.004-29.044-29.044v-83.906
					c0-16.041,13.004-29.045,29.044-29.045h24.742c16.041,0,29.044,13.004,29.044,29.045v83.906
					C2353.948,1270.94,2340.945,1283.944,2324.904,1283.944z"/>
				<path style="fill:#86B1F2;" d="M2340.424,1254.9v-83.906c0-8.572-6.949-15.521-15.521-15.521h-24.741
					c-8.57,0-15.52,6.948-15.52,15.519v83.907c0,8.57,6.949,15.519,15.52,15.519h24.742
					C2333.475,1270.419,2340.424,1263.471,2340.424,1254.9z"/>
				<path style="fill:#13375B;" d="M2165.745,1296.854h-247.629c-15.354,0-27.801-12.448-27.801-27.803v-203.643
					c0-15.355,12.446-27.802,27.801-27.802h185.191c12.216,0,23.001,7.974,26.581,19.651l62.437,203.646
					C2197.805,1278.773,2184.438,1296.854,2165.745,1296.854z"/>
				<path style="fill:#355389;" d="M2158.164,1149.48l34.161,111.422c5.479,17.871-7.887,35.951-26.58,35.951h-247.629
					c-15.354,0-27.801-12.448-27.801-27.803v-119.57H2158.164z"/>
				<path style="fill:#13375B;" d="M2197.769,1648.607c0.056,76.244-61.763,138.064-138.007,138.008
					c-74.964-0.055-137.751-62.844-137.802-137.808c-0.052-76.239,61.763-138.054,138.003-138.001
					C2134.925,1510.858,2197.713,1573.645,2197.769,1648.607z"/>
				<ellipse style="fill:#184655;" cx="814.521" cy="1646.581" rx="132.045" ry="135.774"/>
				<path style="fill:#3C8F7C;" d="M1796.656,1465.546H431.385c-21.468,0-38.872-17.403-38.872-38.871V625.893
					c0-21.469,17.404-38.872,38.872-38.872h1365.271c21.469,0,38.873,17.404,38.873,38.872v800.781
					C1835.529,1448.142,1818.125,1465.546,1796.656,1465.546z"/>
				<path style="fill:#184655;" d="M431.386,1429.688c-1.661,0-3.013-1.352-3.013-3.014V625.893c0-1.662,1.352-3.013,3.013-3.013
					h681.874v806.808H431.386z"/>
				<path style="fill:#96D9C9;" d="M431.386,836.809c-1.661,0-3.013-0.359-3.013-0.8V623.413c0-0.441,1.352-0.8,3.013-0.8h681.874
					v214.196H431.386z"/>
				<path style="fill:#355389;" d="M1796.656,587.021h-647.538v878.525h647.538c21.469,0,38.873-17.403,38.873-38.871V625.893
					C1835.529,604.424,1818.125,587.021,1796.656,587.021z"/>
				<rect x="499.289" y="1187.641" style="fill:#F7CC7F;" width="290.487" height="242.047"/>
				<rect x="746.741" y="1140.302" style="fill:#FAE0B2;" width="366.519" height="289.386"/>
				<rect x="800.535" y="864.877" style="fill:#F7CC7F;" width="312.725" height="275.424"/>
				<path style="fill:#184655;" d="M1784.348,1654.57H486.378v-189.024h1297.969c19.947,0,36.118,16.171,36.118,36.118v116.788
					C1820.466,1638.4,1804.295,1654.57,1784.348,1654.57z"/>
				<rect x="499.289" y="1491.037" style="fill:#3C8F7C;" width="630.465" height="140.914"/>
				<rect x="926.812" y="1544.455" style="fill:#F47458;" width="182.164" height="55.94"/>
				<rect x="999.06" y="1544.455" style="fill:#B75742;" width="109.916" height="55.94"/>
				<rect x="539.964" y="1544.455" style="fill:#F47458;" width="182.163" height="55.94"/>
				<rect x="539.964" y="1544.455" style="fill:#B75742;" width="82.484" height="55.94"/>
				<path style="fill:#13375B;" d="M1378.109,1646.581c0,74.985-18.442,135.774-126.627,135.774
					c-72.926,0-137.46-60.789-137.46-135.774c0-74.987,59.118-135.774,132.044-135.774S1378.109,1571.594,1378.109,1646.581z"/>
				<path style="fill:#13375B;" d="M1418.876,1642.853c0,79.398-62.95,139.503-135.876,139.503
					c-72.926,0-128.213-60.104-128.213-139.503c0-79.4,59.118-143.766,132.044-143.766S1418.876,1563.452,1418.876,1642.853z"/>
				<ellipse style="fill:#13375B;" cx="2082.599" cy="1646.118" rx="132.044" ry="140.498"/>
				<path style="fill:#355389;" d="M2147.526,1642.853c0,39.041-29.069,70.69-64.928,70.69s-64.929-31.649-64.929-70.69
					c0-39.043,29.07-70.692,64.929-70.692S2147.526,1603.809,2147.526,1642.853z"/>
				<path style="fill:#355389;" d="M1351.76,1642.853c0,39.041-29.069,70.69-64.928,70.69s-64.929-31.649-64.929-70.69
					c0-39.043,29.07-70.692,64.929-70.692S1351.76,1603.809,1351.76,1642.853z"/>
				<path style="fill:#50BFA5;" d="M717.52,781.231h122.66l0,0c0,17.429-14.13,31.558-31.559,31.558h-59.544
					C731.648,812.789,717.52,798.66,717.52,781.231L717.52,781.231z"/>
			</g>
			<path style="fill:#B75742;" d="M2143.359,1393.039h64.707v-28.625h-93.33l0,0
				C2114.736,1380.223,2127.551,1393.039,2143.359,1393.039z"/>
			<g>
				<path style="fill:#FF7446;" d="M1487.644,1724.474c3.643,20.701,6.277,27.458,6.277,27.458
					c-22.632,15.501-39.063,2.227-32.087-4.439c3.488-6.373-0.078-22.167-3.488-32.088
					C1470.437,1712.925,1487.644,1724.474,1487.644,1724.474z"/>
				<path style="fill:#FF7446;" d="M1644.598,1722.381c4.65,6.976,9.301,11.626,9.301,11.626
					c-17.207,24.183-24.881,13.726-24.881,13.726c-5.115-9.54-6.277-11.551-6.277-11.551
					C1634.599,1724.009,1644.598,1722.381,1644.598,1722.381z"/>
				<g>
					<path style="fill:#09434C;" d="M1492.516,1747.115c0,0,4.092,5.724,5.154,15.394c1.062,9.67-1.655,18.752-1.655,18.752
						s-46.841,2.635-65.183-0.772c-18.343-3.405-19.976-6.614-19.517-11.81c0.459-5.195,25.349-3.637,32.795-9.875
						c7.445-6.238,17.821-19.625,22.226-17.448c4.405,2.177,3.54,10.528,9.495,11.054
						C1481.786,1752.936,1489.858,1743.943,1492.516,1747.115z"/>
					<path style="fill:#09434C;" d="M1648.566,1726.404c0,0,6.984,0.854,14.83,6.606c7.845,5.753,12.703,13.893,12.703,13.893
						s-29.715,36.305-44.623,47.521c-14.907,11.217-18.375,10.251-21.894,6.403c-3.52-3.849,14.45-21.142,14.885-30.846
						s-2.42-26.399,2.161-28.174c4.581-1.775,10.152,4.506,14.564,0.472C1645.605,1738.246,1644.434,1726.22,1648.566,1726.404z"/>
					<path style="fill:#3C8F7C;" d="M1569.881,1447.088c0,0-20.781,141.767-20.781,159.346c0,17.578,99.094,110.718,99.094,110.718
						s-10.447,27.36-34.227,30.576c-5.807,0.786-109.494-93.942-115.864-108.743c-7.306-16.974-27.338-137.189-27.338-137.189
						s-44.949,67.594-42.976,81.524c3.097,21.867,70.313,139.162,70.313,139.162s-9.173,20.304-41.788,6.277
						c0,0-91.533-112.841-103.068-127.743c-27.295-35.264,96.516-193.479,96.516-193.479L1569.881,1447.088z"/>
					<path style="opacity:0.32;fill:#64AEBA;" d="M1406.646,1579.801c0-23.583,59.771-106.049,59.771-106.049l4.348,28.043
						c0,0-44.948,67.594-42.976,81.524c3.097,21.867,70.313,139.162,70.313,139.162s-2.088,4.621-7.813,7.931
						C1457.382,1697.142,1406.646,1601.104,1406.646,1579.801z"/>
					<g style="opacity:0.5;">
						<path style="opacity:0.32;fill:#64AEBA;" d="M1512.328,1454.542c0.741-7.593,2.224-15.985,4.314-24.984l53.238,17.53
							c0,0-2.772,18.91-6.291,43.775c-10.863,5.777-21.377,9.586-27.342,8.402c-10.336-2.05-23.957-17.745-23.957-44.742
							C1512.291,1454.538,1512.316,1454.536,1512.328,1454.542z"/>
					</g>
					<path style="fill:#F7951F;" d="M1517.76,1434.818c6.9-68.068,80.512-205.368,106.037-251.29
						c12.04,0.837,22.669,4.839,28.664,14.476c20.509,32.959-4.393,172.854-27.1,213.869c-8.674,15.67-18.832,27.545-28.074,36.237
						c-13.37,12.573-44.486,30.467-56.486,28.177c-9.957-1.9-23.077-16.454-23.077-41.486
						C1517.724,1434.814,1517.748,1434.813,1517.76,1434.818z"/>
					<path style="fill:#FFFFFF;" d="M1431.268,1419.197c0.285-0.499,103.535-211.608,125.992-221.199
						c0.442-0.198,1.646-0.699,2.31-0.971c15.69-6.407,36.277-12.398,53.06-13.464c6.727-0.45,10.829-0.035,11.168-0.035
						c-25.525,45.922-99.137,183.223-106.037,251.29C1491.578,1422.01,1459.708,1411.564,1431.268,1419.197z"/>
					<g style="opacity:0.5;">
						<path style="fill:#DEB6C4;" d="M1561.669,1305.488c-16.132,35.26-30.806,71.637-38.588,101.524
							c-50.364,8.083-63.38,3.375-84.863-1.865c10.476-21.063,17.965-35.691,20.847-41.377L1561.669,1305.488z"/>
					</g>
					<g>
						<path style="fill:#D67B0F;" d="M1558.506,1403.884c-7.604,1.865-20.456,2.789-35.425,3.128
							c7.782-29.887,22.456-66.264,38.588-101.524l98.313-55.843c-0.016,0.247-0.031,0.494-0.046,0.739
							c-2.636,42.322-20.421,82.266-50.038,112.612C1589.855,1383.533,1570.05,1401.052,1558.506,1403.884z"/>
					</g>
					
						<rect x="1311.058" y="1174.871" transform="matrix(-1 -1.224647e-16 1.224647e-16 -1 2846.6465 2574.2734)" style="fill:#F7CC7F;" width="224.531" height="224.531"/>
					
						<rect x="1311.058" y="1174.871" transform="matrix(-1 -1.224647e-16 1.224647e-16 -1 2700.9004 2574.2734)" style="fill:#FAE0B2;" width="78.785" height="224.531"/>
					<path style="fill:#FF7446;" d="M1420.647,1359.871c-1.599,0.118-28.503,10.426-49.435,3.576
						c-9.974-3.265-19.126-5.182-15.098,3.974c4.028,9.155,22.418,5.267,24.981,7.831c2.563,2.564-31.78,21.345-41.159,22.94
						s6.002,9.653,9.665,9.653c3.662,0,0.732,1.464,4.394,5.127c3.662,3.661,12.531,2.793,16.846,3.661
						c14.077,2.836,51.5-23.026,57.13-28.656S1420.647,1359.871,1420.647,1359.871z"/>
					<path style="fill:#F7951F;" d="M1622.402,1183.445c0,0-14.889,16.747-23.408,34.334
						c-8.597,17.749-56.348,104.988-61.625,104.988s-123.135,38.381-123.135,38.381s8.244,17.033,8.244,36.077
						c0,0,126.711-20.509,136.232-20.509s20.508-16.846,30.029-26.367c9.521-9.522,56.856-52.607,70.543-86.362
						C1672.97,1230.23,1665.615,1176.121,1622.402,1183.445z"/>
					<polygon style="fill:#FF7446;" points="1577.969,1137.005 1562.713,1204.639 1622.402,1183.445 1610.725,1137.23 					"/>
					<path style="opacity:0.68;fill:#FF7F4C;" d="M1577.969,1137.005l32.756,0.226l2.714,10.739
						c-9.367,9.498-20.623,17.148-29.794,19.29c-3.641,0.85-8.008,0.897-12.579,0.349L1577.969,1137.005z"/>
					<path style="fill:#FF865E;" d="M1602.326,1071.988c0,0-10.229,0.093-22.693,8.259c-12.462,8.165-23.856,30.941-23.856,30.941
						s-5.708,14.461-6.454,22.956c-0.745,8.494,29.296,22.226,44.205,20.298c14.908-1.927,34.439-18.79,39.414-34.181
						C1637.916,1104.87,1608.974,1071.128,1602.326,1071.988z"/>
					<path style="opacity:0.68;fill:#FF7F4C;" d="M1575.222,1083.744c1.443-1.332,2.92-2.52,4.412-3.497
						c12.463-8.166,22.692-8.259,22.692-8.259c3.149-0.408,11.305,6.953,18.485,16.45l-5.137-0.337c0,0-17.179,4.712-34.146-1.421
						C1579.251,1085.857,1577.151,1084.857,1575.222,1083.744z"/>
					<path style="fill:#0D074B;" d="M1615.675,1088.101c0,0-5.757,12.602-9.532,30.178c-3.776,17.576-1.845,35.367-1.845,35.367
						c12.474,6.404,32.529,5.799,49.624-16.371c17.095-22.171-2.266-40.313-6.597-43.651s2.417-4.563-0.617-13.331
						c-3.034-8.767-8.38-3.246-14.2-9.342c-5.82-6.095,9.441-18.832-1.384-28.785c-10.825-9.954-24.94,9.292-24.94,9.292
						s-5.975-19.068-16.892-8.204c-10.916,10.865-11.364,18.521-2.449,30.343
						C1595.759,1085.418,1615.675,1088.101,1615.675,1088.101z"/>
					<path style="fill:#FF865E;" d="M1606.062,1110.19c0,0,13.526-6.542,13.526,4.906c0,11.448-4.629,17.581-11.327,14.72
						C1601.563,1126.954,1606.062,1110.19,1606.062,1110.19z"/>
				</g>
			</g>
		</g>
	</g>
</g>
</svg>
